<?xml version="1.0" encoding="UTF-8"?>
<svg width="146.16mm" height="85.92mm" version="1.1" viewBox="0 0 146.16 85.92" xml:space="preserve" xmlns="http://www.w3.org/2000/svg"><g transform="translate(-3.6337 -167.31)"><path d="m51.896 253.06c-0.20389-2.7013-1.9376-5.0714-1.5758-7.419-2.5543 1.0956-1.5183-5.0655-4.4483-4.6116-0.19815-3.9542-1.8125-1.166-1.0533-3.9719-1.8586 0.11794-3.4987-2.7135-4.2045-4.1006-1.3185-0.94282-0.92268-4.6829-1.9377-4.5679-1.6858-2.3161 0.2929-8.3687-3.1222-7.4018-3.5708 0.35062-8.8333 0.88093-11.536 0.14947-2.5633-0.55884-4.3149-0.62385-6.813-1.5221-3.0925-0.46336-3.1515-0.68908-4.8961-1.0105s-7.1388 0.13513-8.6758-0.45813c0.62281-2.5441 2.5818-5.1228 3.0679-7.6038 1.6144-0.19576 2.9591 2.4312 3.605 3.7294 1.888 0.33263 2.4451 1.4248 4.2985 2.1501s3.6356 0.6581 5.6224 1.626c1.362 0.42283 3.7835 0.79779 6.4349 0.77214 2.6514-0.0257 4.5832-0.2189 7.489-0.58778 6.0862 0.79252-0.70566-2.3969-1.4175-3.5902-1.0843-1.3603-2.0911-3.7909-1.8602-5.4636-1.4334-2.3494-1.4627-5.5187-2.015-7.6756-0.80847-2.1707-1.0887-4.3837-1.1506-6.4598 0.63697-2.9998-0.58768-3.5602-0.35321-5.7196 0.58608-1.6739-0.14184-3.1599 0.25346-5.5068-0.33364-1.4893-0.78406-3.2324-1.078-4.9569 0.74609-1.2328 2.4327 1.262 3.81 1.6407 0.47094 0.76886 2.2369 2.5979 3.8315 3.7552 1.5947 1.1572 1.9594 3.1896 3.134 1.6972 2.0237-1.0562 3.1876 2.2512 3.5147 4.627 2.1981-0.14475 1.5624 3.7594 2.4433 4.1176 1.3212 0.3813 1.0587 3.3335 1.8642 4.8901 0.61121 1.1653-0.31822 3.1815 0.19123 5.2514s-1.3613 4.1692-0.84682 6.3778c-1.3258 1.818-5.9164 7.1073-1.5809 5.5487 1.8032 0.22197 2.4218-0.51957 4.5337-0.54014 2.3928-0.22691 2.6412-0.32972 5.0876-0.87511 2.4464-0.5454 3.7075-1.095 6.115-1.7728 2.4075-0.67786 1.0869-0.90947 1.0154-2.239-0.81914-0.68797-2.2534-7.0982-2.1243-6.0458-1.2169-1.3615 0.34631-3.2831-0.54766-5.2723 0.52654-1.8372 1.0928-4.9275 1.9182-8.0456 0.78248-1.3656 1.5413-3.9857 2.1555-5.2348 1.212-1.6485 0.97117-2.8421 2.685-3.9886 0.02484-2.348 3.1109-4.6127 3.8729-5.1372 0.39125-1.7019 1.3401-1.0196 1.7189-2.57 1.2367-1.096 2.6296-0.012 2.5395 2.672 0.01541 2.5297 1.7909 5.3387 1.3145 7.7181 1.0184 1.848 0.09933 6.4494 0.66076 7.4463-0.28366 3.1856-0.61946 3.0263-1.1477 5.6466-0.27703 3.001-1.3639 5.5272-2.3861 7.1246-2.2433 1.643-1.4926 3.6448-3.9144 4.8293 0.24573 0.68232 3.7262-0.20427 5.2297-0.94198 2.3128-0.36799 2.075-0.52486 4.3386-1.3461 2.2946-0.5176 4.4703-1.3528 6.2599-1.6767 0.56567 0.1688 4.239-0.76434 2.7392-2.7142-3.1119-3.5268-1.301-5.6124-2.3394-8.9951 0.01471-2.7711 1.1965-5.5946 1.7027-8.128-0.02512-0.16695-0.29528-3.2981 0.98309-3.5583 0.39956-3.0535 2.4229-3.0998 3.0616-5.9474 2.0677-0.57358 1.7681-3.819 4.249-5.1884 2.4809-1.3694 3.7019-6.9618 4.5864-3.6264 0.88451 3.3354 0.35175 3.4778 0.70974 5.417 2.0608 1.6528 0.24793 2.8409 1.0698 5.3941 0.09738 3.0427 1.5643 4.2111-0.30136 6.1791-0.76763 1.9203-0.2764 5.557-1.2172 6.2348-0.05893 2.4051-2.3189 2.3768-1.9807 4.1793-0.4116 2.6504-2.7328 2.6491-3.1875 5.1718-1.0839 0.076-2.4783 1.6661-3.5869 3.1376 1.0286 0.74122 3.4674-1.1362 4.4552-0.98221 1.7501-0.96421 2.6704-1.564 4.6999-1.8849 1.13-0.52548 3.7439-2.3219 5.0387-3.1437 1.2947-0.8218 3.7484-2.6149 4.8263-3.455 1.6187-1.5298 3.7588-2.6897 4.7919-4.2454 2.6966-1.6131 0.67974-0.71971 3.7813-2.2753 2.566-0.68014 4.8179-2.8694 7.0236-3.3039 2.4196 0.45991 4.6574-2.0743 7.2423-0.56643 2.6802 0.75803 3.5162 0.5403 5.3175 1.294s1.6475 0.27051 3.9673 1.4418c3.184 1.3923 3.1752 1.5231 5.6058 3.1739 1.3024-0.28548 5.9552 0.71862 3.762 1.521-2.576-0.15338-4.0067 0.34366-6.0224 0.39493-2.4427 0.91816-4.9485 3.3329-7.376 4.0049s-2.7482 1.0538-5.2705 3.0407c-1.6299 0.15934-3.1036 1.0946-4.5315 0.8691-4.1015 0.24733-8.2891-0.0339-12.366-0.35908-0.53563 0.92363-4.3302 0.30923-5.9209 0.91676-1.5907 0.60752-4.4251 1.3125-6.8573 1.5831-1.9798 0.58355-6.7169 2.1741-3.8562 3.2759 1.3776-0.57361 1.5332-0.75463 2.7427-1.6528 1.6498-0.0518 1.8621 1.6877 3.2967 0.78123 1.5366-0.46629 2.0879 0.24032 3.8703 0.18838 1.7824-0.052 4.0791 0.86374 5.5699 0.54254 1.2832-1.0238 1.5181 1.1638 3.1481 0.3522s3.3509 1.029 5.8379 0.77116c0.63072 2.0474 2.8421 0.10025 4.4538 1.2531 1.5609-0.39778 2.1762 1.102 0.6537 1.4509-2.6536 0.99156-4.8564 1.9194-6.5904 2.399-1.9808 1.1458-3.3079 2.2321-4.9728 2.9956-1.6649 0.76347-4.2625 2.7329-6.8132 2.2063-1.9664-0.17495-4.2323-1.3295-6.6977-0.45263-3.3787 1.2451-7.6004-0.51941-9.6663-1.9585-2.2403-2.9314-3.804-3.679-5.0827-6.621-3.6541 0.79902-7.275 2.1837-10.733 2.982-2.4977 1.1247-5.811 2.5622-7.6483 2.1678-2.7953 0.97649-0.06432 1.6045 1.1406 1.5139-0.28133-0.39369 1.8124 0.11453 2.8685-0.19143 1.6618-0.33639 5.2118 1.3288 6.5813 1.9484 1.4941 0.41914 2.3852 1.3132 2.9336 1.9774 2.2939 0.29994 2.8244 3.4772 5.3764 3.6003-1.1686 2.0905 0.44829 0.46699 1.7979 2.2045 1.6848 2.1646 3.1848 1.3423 5.4453 2.5592 4.9451 0.45031-2.0965 2.2845-3.9369 3.1138-1.9913 0.57487-4.678 2.5957-7.0858 1.8487-1.5939 0.9356-3.4759 0.0144-5.3671-0.16325-1.7425 1.2393-4.3478-1.3902-6.3394-1.7149-2.8299-1.8187-4.9552-2.7148-6.062-5.6588-0.39588-1.8049-1.6002-4.7776-2.7918-6.699-0.65911-3.3627-3.802-0.85504-4.5037-1.0133-2.732 1.3563-5.081 1.321-7.4006 2.0675s-3.4872 1.0425-6.1754 0.88818c-3.4263 0.31583-2.2957 2.3395-0.9327 1.3386 1.1682 0.98327 0.76447-0.11621 2.8747 0.93813 0.84762-4e-3 4.0863 1.1478 4.2708 1.7748 1.1773 1.4997 2.8697 4.7636 3.6991 5.1824 1.5885 0.48442 0.81661 3.7853 1.4821 5.8125 1.2455 2.5368 1.9147 6.7436 1.1608 9.703 0.19769 3.2906-1.413 5.9473-3.5242 8.2471 0.1553 0.87272-1.438 1.4972-2.0001 1.0051z" fill="#144e24"/></g></svg>