<?xml version="1.0" encoding="UTF-8"?>
<svg width="230.58mm" height="86.579mm" version="1.1" viewBox="0 0 230.58 86.579" xml:space="preserve" xmlns="http://www.w3.org/2000/svg"><g transform="translate(18.447 -63.555)"><path d="m-18.444 112.85 0.15622 2.3043c0.15531-0.0144 0.30094-0.0732 0.44862-0.0652 2.5004 0.14885 4.4078 0.01 5.2879-0.38661 0.43473-0.19571 0.70922-0.1538 1.0132 0.0201l0.78122-0.25837c-0.28682-0.44526 0.01652-0.6252 1.462-1.016 1.0782-0.29147 1.6313-0.25331 2.6622 0.18419l1.3011 0.55227 1.0375 1.8967 1.0367 1.8967 0.88301-0.0432c3.054-0.14952 4.4813-0.92801 5.991-3.2672 0.46173-0.71542 2.1005-2.5094 3.7653-4.1219 1.6213-1.5703 3.2817-3.3186 3.6896-3.8854 0.99954-1.3888 2.9585-2.4988 5.2014-2.9463 2.5038-0.49958 2.8316 0.0519 1.9671 3.3092-0.32487 1.2241-0.85191 2.5677-1.1711 2.9855-0.475 0.62185-0.53349 1.0994-0.32333 2.6297 0.33269 2.4225 0.79201 2.9173 3.3462 3.6028l2.0167 0.5415 3.1959-1.1322c1.7579-0.62248 3.3876-1.3041 3.6218-1.515 0.23417-0.21079 0.57828-0.38296 0.76454-0.38282 0.1864 7.5e-4 0.95923-0.37302 1.7171-0.82993l1.3784-0.83082 0.08681-1.4961c0.14545-2.4929 0.81924-6.4487 1.149-6.7456 0.17059-0.1536 0.95857-0.68614 1.7507-1.1835l1.44-0.90445 0.61342 0.68127c0.397 0.44093 0.6467 1.1018 0.70791 1.8736 0.05207 0.65581 0.34726 1.8289 0.65629 2.6071 0.33544 0.8447 0.64097 2.7555 0.7585 4.7417l0.19706 3.3266-1.8001 2.4059c-1.6992 2.2706-1.7948 2.4719-1.7094 3.5933 0.07371 0.96665 0.27254 1.3901 1.0682 2.2738 0.63079 0.70058 1.1035 1.5199 1.3321 2.3081l0.35419 1.2221-2.2045 1.7645c-2.1606 1.7295-2.2308 1.8142-3.5321 4.2442-1.0235 1.9112-1.6283 2.7497-2.6379 3.6588-1.4473 1.3032-4.54 5.5934-4.7789 6.629-0.09339 0.40478-0.61518 1.0761-1.3498 1.7376-0.81158 0.73077-1.5885 1.7745-2.4113 3.2393-0.08442 0.15009-0.14406 0.2002-0.22018 0.33314l1.9143 1.4897c0.2502-0.58425 0.97684-1.1942 2.3439-1.8761 2.0171-1.0062 2.4886-1.6541 3.3845-4.6545l0.62585-2.0975 1.2949-0.63466c1.2783-0.62673 1.3043-0.6567 2.0105-2.3506 0.50095-1.2011 1.7316-3.0824 4.1034-6.2725l3.3882-4.5569-0.14352-2.9937c-0.13663-2.8482-0.1034-3.0414 0.68279-3.9727 0.4545-0.5384 1.2662-1.2259 1.8035-1.5279 0.53735-0.30194 1.3513-1.0117 1.8094-1.577 1.2292-1.517 3.2188-2.5635 5.7473-3.0227 1.1781-0.21381 2.5913-0.6017 3.14-0.86218 0.89217-0.42339 1.0939-0.40363 1.9084 0.18494 0.76691 0.55414 1.4436 0.66315 4.2779 0.69035l3.3661 0.0322 4.1927 2.5528 0.91782-0.82643c0.5047-0.45442 2.3426-1.6953 4.0843-2.7575 3.003-1.8314 3.3081-1.9568 5.9057-2.4213 1.7967-0.32086 3.6278-0.89036 5.3206-1.6539 1.4196-0.64029 3.5291-1.4402 4.6883-1.7778 2.3038-0.67086 2.7726-0.98037 3.1316-2.0694 0.3302-1.0016 0.78687-1.3639 1.6615-1.318 1.148 0.0602 1.3735 0.59019 1.0602 2.4903-0.23221 1.4082-0.1734 1.9712 0.30339 2.905 0.43546 0.85369 0.46719 1.8675 0.32767 3.9404l1.5495-0.49328 0.24335-1.2427 1.8251-1.2831c1.2443-0.87446 1.9084-1.4744 2.0868-1.8844 0.2477-0.56956 0.18181-0.67863-1.2361-2.0517l-1.4974-1.4506 0.56453-2.093c1.0986-4.0732 1.0416-6.5688-0.19251-8.4333-0.78916-1.1922-0.74819-2.2928 0.12788-3.4398 0.72532-0.94953 3.004-1.6993 4.3779-1.4406 0.87101 0.16405 1.3199 0.0473 2.4826-0.6478 1.249-0.74665 1.5146-0.80381 2.212-0.47536 0.67362 0.31693 0.88991 0.58646 1.4398 1.796 1.0597 2.3308 2.5085 6.999 2.6944 8.6811l0.1731 1.5701 4.5489 2.061c3.0139 1.3657 4.9446 2.0801 5.7213 2.1166 1.3254 0.0625 4.6856-1.0629 6.2202-2.0828 1.5066-1.0012 1.7703-1.0001 2.1277 9e-3 0.21145 0.59724 0.16497 0.95288-0.16462 1.2497-0.25342 0.22822-0.4018 0.65455-0.32957 0.94765 0.10891 0.44241 0.39491 0.51065 1.6855 0.40299 0.85486-0.0709 1.8601-0.14591 2.2337-0.16626 5.3794-0.28692 7.5468-0.6007 8.5002-1.2311 0.93289-0.61681 1.2571-0.64281 3.7867-0.30608 2.5867 0.34435 2.8619 0.44391 4.2302 1.5371 1.4154 1.1308 1.5108 1.2695 2.9045 4.2043 0.79262 1.669 1.901 3.699 2.4629 4.5116 0.75219 1.0878 1.5492 3.0068 3.0219 7.2772 1.9218 5.5723 2.2249 7.0972 1.6149 8.124-0.11673 0.19659-1.2785 0.46153-2.5816 0.58882-1.3032 0.12686-2.4166 0.27407-2.4745 0.32634-0.0577 0.0522 0.26459 0.23407 0.71686 0.40461 0.45226 0.17048 1.1386 0.66143 1.525 1.0906 0.62361 0.69258 0.66401 0.904 0.35969 1.8824-0.18846 0.60623-0.42842 2.4619-0.53297 4.1236l-0.18978 3.0213-1.688 1.8871c-1.519 1.6981-1.6596 1.9404-1.4054 2.4204 0.15516 0.29347 0.1368 0.99585-0.0409 1.561-0.17776 0.56522-0.20386 1.1598-0.0579 1.3219 0.14587 0.16209 0.17663 0.5404 0.0688 0.84038-0.0973 0.26966-0.0636 0.66274 0.029 0.94488l0.65188 0.4923c0.2004-1.1008 0.98338-3.279 1.3709-3.6279 0.16081-0.14476 0.62688-0.0139 1.0897 0.30665l0.8086 0.55979-0.18897-1.1962c-0.14865-0.93884-0.0355-1.44 0.52562-2.3286 0.44031-0.69702 0.94843-2.2843 1.3215-4.1292 0.78814-3.8976 0.99695-4.3801 1.8958-4.3779 0.57572 1e-3 0.87857-0.2096 1.8478-1.2903 0.69442-0.77427 1.9138-1.793 3.0421-2.541 1.7918-1.1876 1.8982-1.298 2.1832-2.2738 0.19491-0.66739 0.67249-1.3908 1.3673-2.0711 1.0607-1.0386 1.063-1.0469 0.37896-1.2272-0.79352-0.20917-0.94741-0.32905-0.70378-0.54842 0.24733-0.22264 1.7402 0.20738 2.2273 0.64181 0.22544 0.20105 0.4895 0.4317 0.58679 0.51196 0.0971 0.0802 0.26213-0.0228 0.36641-0.22635 0.1375-0.26973 0.45374-0.19856 1.1518 0.25978 0.52927 0.34748 1.2481 0.6151 1.5975 0.59417 0.76263-0.0449 4.7162 1.6346 4.6972 1.9963-8e-3 0.13979 0.0628 0.33851 0.15572 0.44178 2e-3 5e-3 -0.0114 0.0467-9e-3 0.0523l2.3752 3.1414 1.8235 2.1186 1.1395 1.4718 2e-5 -2e-3 4e-3 0.0123 1.6045 2.0725 1.1966 1.0539 5.9543 6.9705 0.16936 0.16877c0.0221 0.02 0.0368 0.0235 0.0585 0.0432 1.6835 1.5401 4.1156 2.6292 5.6763 2.5416 0.72166-0.0408 1.5285 0.0528 1.7927 0.20776 0.54387 0.31897 2.8511-0.0726 3.4254-0.58149 0.32645-0.28991 0.64299-0.42952 0.88067-0.42439l0.26865-0.2731 1.8144-1.2749 1.4962-0.8437c0.0829-0.13376 0.12818-0.26965 0.21444-0.39824 0.25565-0.38088 0.40834-0.56114 0.55697-0.692l0.66166-7.4661c-0.52224-0.0897-1.666 0.0311-2.6315 0.29096-1.7494 0.47162-1.8744 0.54973-3.3032 2.0695-1.2844 1.3662-1.6977 1.6639-3.0587 2.1998-1.1331 0.44626-1.869 0.54691-2.6289 0.36137-0.58039-0.14203-1.1662-0.15925-1.3021-0.0382-0.35518 0.31578-1.119-0.63358-1.2941-1.6087-0.25984-1.4449-0.17806-2.3652 0.26387-2.9822 0.28325-0.39547 0.33921-0.99421 0.16511-1.7689l-0.2635-1.1716-0.69358 0.26924c-0.38169 0.14785-0.72656 0.29813-0.76655 0.33413-0.35152 0.3165-1.4704 0.53756-1.5136 0.29926-0.0328-0.18337 0.47717-0.44851 1.2882-0.6691 1.2212-0.33189 1.3592-0.42756 1.5176-1.0514l0.14982-0.5897-1e-3 -0.0119-0.41885-0.48442c0.0582 0.16546-0.38078-0.12757-1.0831-0.74575-0.7473-0.65779-1.3542-1.2864-1.3484-1.3971 6e-3 -0.1107 0.50549 0.22681 1.11 0.7501 0.50557 0.4376 0.89501 0.86907 1.1276 1.1682l-4.6256-5.3512-0.32731-0.359c-0.54006-0.51013-0.83965-0.74879-1.7187-1.6616-2.4302-2.5236-2.82-2.8404-4.1087-3.3384-0.7831-0.3026-1.4611-0.42207-1.5068-0.26556-0.0476 0.16316-0.1569 0.091-0.25712-0.16976-0.11744-0.30596-0.20731-0.34119-0.27536-0.10805-0.0681 0.23309-0.15786 0.19784-0.27536-0.10806-0.12755-0.33244-0.20508-0.3479-0.28969-0.0584-0.074 0.25358-0.13722 0.27655-0.17576 0.0643-0.0314-0.18232-0.83476-0.56625-1.7815-0.85408-0.57171-0.1738-1.073-0.38836-1.4919-0.61204l-3.8214-0.84064c1.7084 0.57554 0.50674 0.39328-2.5107-0.42978l-3.2627-0.88964-1.3409-2.175c-1.9318-3.1325-1.8926-3.1001-3.3345-2.7658-1.0958 0.25409-1.3091 0.21031-1.7114-0.35459-0.46542-0.65352-0.94018-2.5319-0.69344-2.7433 0.0736-0.0638 0.93282-0.52939 1.908-1.0358l0.11812-0.0611-1.2028-0.67483c-0.28266 0.10763-0.77023 0.33195-0.67397 0.23618 0.25919-0.25784-0.10242-0.52144-2.3273-1.695-1.8426-0.9722-2.9196-1.7073-3.584-2.4451-0.60611-0.67316-1.655-1.4275-2.8982-2.0843-1.1788-0.6228-2.7778-1.7588-4.0488-2.8764-1.8814-1.6543-2.3122-1.9127-4.1276-2.4758-2.8471-0.88317-6.0205-0.71589-8.8314 0.46585-1.2961 0.54472-2.6126 0.88735-3.3803 0.87959-0.69162-7e-3 -1.4612 0.0725-1.71 0.17673-0.2572 0.10785-0.63127-9e-3 -0.86725-0.27121-0.23043-0.256-0.90606-0.47629-1.5189-0.49528-0.97704-0.0303-1.3431 0.13826-3.1872 1.4679l-2.0828 1.5019-1.0316-0.54952-1.0316-0.54948-0.0754-3.3227c-0.0409-1.8276 0.0326-4.045 0.16382-4.9275 0.24119-1.6224 1.1021-3.7159 1.5193-3.694 0.12474 7e-3 0.25995-0.26391 0.30012-0.60123 0.0403-0.33728 0.3079-1.0445 0.59501-1.5718 0.28706-0.52735 0.47109-1.3016 0.40922-1.7203-0.0619-0.41861-0.083-1.5447-0.0467-2.5027 0.0422-1.1167-0.15616-2.3057-0.55362-3.3142-0.57549-1.4612-0.57591-1.6275-5e-3 -2.3424 0.33804-0.42321 0.92234-1.0511 1.2982-1.3949 0.88753-0.81123 0.94976-1.139 0.39365-2.065-0.37916-0.63133-0.73835-0.83498-2.063-1.166l-1.604-0.4013 0.71796-1.3766c0.39484-0.75724 0.72824-1.5795 0.74124-1.8273 0.013-0.24781 0.35818-0.75158 0.7671-1.1197 0.62651-0.56413 0.69384-0.76286 0.42814-1.2645-0.39968-0.75447-2.4148-1.422-2.504-0.82938-0.0322 0.21354-0.42318 0.8305-0.86914 1.3709-0.44599 0.54039-0.78844 1.1048-0.76131 1.2543 0.0272 0.14956-0.21549 0.41195-0.53879 0.58322-0.35852 0.1894-0.51108 0.39625-0.39147 0.5291 0.12126 0.13464-0.24296 0.61374-0.95297 1.253-1.0041 0.90409-1.3888 1.0733-3.0462 1.3395-1.5832 0.2542-2.0232 0.20873-2.6584-0.27654-0.34649-0.26465-0.57223-0.38162-0.69771-0.42041l-0.22072 0.09159c-0.09 0.16732-0.33005 0.72788-0.64403 1.5367-0.35059 0.90312-0.71075 1.708-0.79991 1.7884-0.0892 0.0803-1.1713 0.1732-2.4047 0.20696-1.6216 0.04433-2.7139 0.27102-3.9456 0.81854l-1.7035 0.75707-5.3749 6.2018c-6.6166 7.6344-7.0894 8.0646-7.8922 7.1834-0.65785-0.72163-1.41-1.1093-1.6799-0.86633-0.14136 0.12732-0.20738 0.70029-0.14655 1.2737 0.0603 0.57355 3e-3 2.8802-0.12923 5.1258l-0.23994 4.0831-1.6166 1.2644c-1.3826 1.0814-1.9337 1.3391-3.8039 1.7791-1.784 0.41982-2.3081 0.42795-2.8443 0.0436-0.36151-0.25893-2.39-1.0276-4.5078-1.708-3.6627-1.1766-3.9237-1.216-5.3585-0.80697-0.82962 0.23644-1.9042 0.37327-2.3875 0.30485-0.62395-0.089-1.5338 0.18835-3.138 0.95706-2.6223 1.2564-3.7499 1.2455-5.2828-0.0526l-0.92602-0.78439 0.57503-1.6165c0.31623-0.88901 0.83505-1.9504 1.1529-2.3586 0.31789-0.40814 0.75279-0.99273 0.96676-1.2988 0.21394-0.30608 0.69322-0.972 1.0651-1.4799 0.37194-0.5079 0.76139-1.2463 0.86538-1.6408 0.104-0.39456 0.29007-0.71188 0.41351-0.70538 0.32192 0.0168 0.82976-1.7416 0.52839-1.8297-0.13814-0.0403-0.16657-0.12625-0.0636-0.19102 0.48444-0.30439 0.62851-0.63706 0.31556-0.72845-0.20333-0.0595-0.21118-0.12485-0.0202-0.15961 0.34648-0.063 1.0079-1.7375 0.78555-1.9889-0.20721-0.23466-0.63704 0.26218-0.69681 0.80543-0.045 0.40855-0.0637 0.40996-0.10678 8e-3 -0.0562-0.52506-1.9197-3.9701-2.154-3.9824-0.078-6e-3 -0.11666 0.75858-0.0858 1.6944 0.0472 1.4669-0.0922 1.9608-1.0141 3.5847-1.1135 1.9616-2.1103 3.0745-2.621 2.9253-0.41998-0.12266-1.0279 0.48258-1.0662 1.0616-0.0824 1.2439-0.72044 3.4038-1.1917 4.0339-0.73121 0.97764-0.64456 1.518 0.37493 2.3414 0.82791 0.66841 0.83805 0.70529 0.28842 1.0378-0.90534 0.54781-0.40905 1.5582 1.6254 3.3096 1.0408 0.89597 1.7401 1.6572 1.899 2.0674 0.41041 1.059-0.94759 1.6966-5.0711 2.3798-3.2311 0.53542-3.7242 0.69621-5.3122 1.7367-3.4425 2.2555-3.1783 2.1576-4.3549 1.6167-0.59276-0.27251-1.4953-0.84496-2.0051-1.2723l-0.92711-0.77714 0.91557-1.663c0.74562-1.3548 0.8874-1.9044 0.76375-2.9623l-0.15186-1.2992-1.4277-0.88055c-0.78518-0.48449-1.7904-1.0259-2.2338-1.2027-1.3654-0.54453-4.5824-0.6536-6.9377-0.23552-2.6931 0.47785-3.1576 0.1837-2.7638-1.7512 0.31781-1.5614 0.147-1.8465-0.54675-0.91307-0.9683 1.3029-1.0032 1.454-0.74287 3.2132 0.2499 1.6888 0.19836 1.9037-1.3757 5.7371-0.98472 2.3981-2.0528 4.541-2.6849 5.3867-1.017 1.3609-1.1265 1.4389-3.5271 2.5083-2.1421 0.95421-2.5304 1.0451-2.868 0.67004-0.48193-0.53524-0.07473-2.0225 0.86918-3.1726 0.56247-0.68543 0.70218-1.3684 0.84822-4.1551 0.2306-4.4002 0.03862-4.7416-3.3839-6.0264-2.3382-0.87782-2.5495-0.9019-3.9514-0.44747-1.1915 0.38618-1.8128 0.77876-3.1774 2.007-2.2491 2.0244-3.1568 2.2775-5.2991 1.4794-1.3488-0.50252-1.7717-0.52697-2.6295-0.15244-0.99448 0.4342-1.048 0.42086-1.97-0.48891-0.88586-0.87403-0.97304-0.90145-1.3361-0.42275-0.3343 0.44075-0.43478 0.43678-0.71819-0.0297-0.27144-0.44633-0.28642-0.3981-0.08498 0.274 0.20885 0.69679 0.45664 0.96588 1.7022 1.8496 1.6342 1.1594 2.4723 1.3669 3.1304 0.77439 0.51364-0.46249 1.4945-0.48256 1.8945-0.0381 0.20158 0.22387 0.40498 0.14471 0.77625-0.30329 0.27659-0.33376 0.52276-0.49409 0.54777-0.35623 0.02489 0.1379-0.06943 0.35459-0.21038 0.4815-0.14096 0.12692-0.34586 0.76287-0.45497 1.4131-0.16648 0.99202-0.5182 1.5709-2.188 3.6-2.7057 3.288-4.4805 4.47-6.4132 4.2718-0.60169-0.0617-0.88403-0.29539-1.7201-1.4246-1.5652-2.1139-2.3018-2.1766-9.1463-0.78085-2.4003 0.48955-4.2179 0.64016-5.094 0.70154zm196.4 6.6621c0.0542-0.0488 0.35234 3e-3 0.66285 0.11524 0.31059 0.112 0.52031 0.24357 0.46617 0.29228-0.0541 0.0488-0.35232-3e-3 -0.66281-0.11523-0.31059-0.1119-0.52032-0.24357-0.46621-0.29228zm7.5558 2.4535c0.0542-0.0486 0.47488 0.0531 0.93474 0.22646 0.4599 0.17335 0.79185 0.35513 0.73775 0.40384-0.0542 0.0487-0.47447-0.0534-0.93436-0.2268-0.45988-0.17335-0.79222-0.35478-0.73813-0.4035zm5.0121 18.896c0.55091 0.53202 1.3874 1.461 1.8589 2.0645 0.47146 0.60355 0.0207 0.1682-1.0016-0.96729-1.0224-1.1355-1.4082-1.6293-0.85731-1.0972zm5.1248-4.3342c0.11808-0.17116 0.51111-0.2731 1.3925-0.39432 0.42256-0.0568 0.44117-0.0378 0.17147 0.19047-0.55386 0.46749-1.5411 0.71566-1.5981 0.40142-0.0116-0.0758-3e-3 -0.14074 0.0341-0.19762zm0.5538 0.96024c0.15673-0.13708 0.46452-0.24677 0.90782-0.31394 0.50631-0.0761 0.7777-0.0312 0.60283 0.1011-0.76132 0.57501-1.3676 0.8536-1.5106 0.69473-0.16181-0.17965-0.15652-0.34466-4.1e-4 -0.48189z" fill="#dee7f8"/></g></svg>
